<mxfile host="app.diagrams.net" modified="2024-01-20T08:52:41.943Z" agent="Mozilla/5.0 (Windows NT 10.0; Win64; x64) AppleWebKit/537.36 (KHTML, like Gecko) Chrome/120.0.0.0 Safari/537.36" etag="JEPoFfp-pND4m2UtFtby" version="22.1.21" type="github">
  <diagram id="C5RBs43oDa-KdzZeNtuy" name="Page-1">
    <mxGraphModel dx="1195" dy="653" grid="1" gridSize="10" guides="1" tooltips="1" connect="1" arrows="1" fold="1" page="1" pageScale="1" pageWidth="827" pageHeight="1169" math="0" shadow="0">
      <root>
        <mxCell id="WIyWlLk6GJQsqaUBKTNV-0" />
        <mxCell id="WIyWlLk6GJQsqaUBKTNV-1" parent="WIyWlLk6GJQsqaUBKTNV-0" />
        <mxCell id="t4Zw2GA6_5PIGfsb4qib-10" value="" style="edgeStyle=orthogonalEdgeStyle;rounded=0;orthogonalLoop=1;jettySize=auto;html=1;" parent="WIyWlLk6GJQsqaUBKTNV-1" source="WIyWlLk6GJQsqaUBKTNV-3" target="t4Zw2GA6_5PIGfsb4qib-0" edge="1">
          <mxGeometry relative="1" as="geometry" />
        </mxCell>
        <mxCell id="WIyWlLk6GJQsqaUBKTNV-3" value="The response coming from API" style="rounded=1;whiteSpace=wrap;html=1;fontSize=12;glass=0;strokeWidth=1;shadow=0;fillColor=#e1d5e7;strokeColor=#9673a6;" parent="WIyWlLk6GJQsqaUBKTNV-1" vertex="1">
          <mxGeometry x="245" y="205" width="110" height="40" as="geometry" />
        </mxCell>
        <mxCell id="WIyWlLk6GJQsqaUBKTNV-5" value="Yes" style="edgeStyle=orthogonalEdgeStyle;rounded=0;html=1;jettySize=auto;orthogonalLoop=1;fontSize=11;endArrow=block;endFill=0;endSize=8;strokeWidth=1;shadow=0;labelBackgroundColor=none;" parent="WIyWlLk6GJQsqaUBKTNV-1" source="WIyWlLk6GJQsqaUBKTNV-6" target="WIyWlLk6GJQsqaUBKTNV-7" edge="1">
          <mxGeometry y="10" relative="1" as="geometry">
            <mxPoint as="offset" />
          </mxGeometry>
        </mxCell>
        <mxCell id="t4Zw2GA6_5PIGfsb4qib-6" value="" style="edgeStyle=orthogonalEdgeStyle;rounded=0;orthogonalLoop=1;jettySize=auto;html=1;" parent="WIyWlLk6GJQsqaUBKTNV-1" source="WIyWlLk6GJQsqaUBKTNV-6" target="t4Zw2GA6_5PIGfsb4qib-5" edge="1">
          <mxGeometry relative="1" as="geometry" />
        </mxCell>
        <mxCell id="WIyWlLk6GJQsqaUBKTNV-6" value="If the Status code = 200" style="rhombus;whiteSpace=wrap;html=1;shadow=0;fontFamily=Helvetica;fontSize=12;align=center;strokeWidth=1;spacing=6;spacingTop=-4;fillColor=#fff2cc;strokeColor=#d6b656;" parent="WIyWlLk6GJQsqaUBKTNV-1" vertex="1">
          <mxGeometry x="240" y="500" width="120" height="100" as="geometry" />
        </mxCell>
        <mxCell id="WIyWlLk6GJQsqaUBKTNV-7" value="Continue, No Error" style="rounded=1;whiteSpace=wrap;html=1;fontSize=12;glass=0;strokeWidth=1;shadow=0;fillColor=#e1d5e7;strokeColor=#9673a6;" parent="WIyWlLk6GJQsqaUBKTNV-1" vertex="1">
          <mxGeometry x="500" y="515" width="120" height="70" as="geometry" />
        </mxCell>
        <mxCell id="WIyWlLk6GJQsqaUBKTNV-11" value="Adding the error to the Global Error List" style="rounded=1;whiteSpace=wrap;html=1;fontSize=12;glass=0;strokeWidth=1;shadow=0;fillColor=#e1d5e7;strokeColor=#9673a6;" parent="WIyWlLk6GJQsqaUBKTNV-1" vertex="1">
          <mxGeometry x="70" y="700" width="120" height="70" as="geometry" />
        </mxCell>
        <mxCell id="-uBfDtKPX-X4wUrIHPEk-1" value="Cases of response&amp;nbsp; from GET API" style="rounded=0;whiteSpace=wrap;html=1;fillColor=#ffe6cc;strokeColor=#d79b00;" parent="WIyWlLk6GJQsqaUBKTNV-1" vertex="1">
          <mxGeometry x="390" y="220" width="190" height="50" as="geometry" />
        </mxCell>
        <mxCell id="-uBfDtKPX-X4wUrIHPEk-7" value="" style="rounded=0;html=1;jettySize=auto;orthogonalLoop=1;fontSize=11;endArrow=block;endFill=0;endSize=8;strokeWidth=1;shadow=0;labelBackgroundColor=none;edgeStyle=orthogonalEdgeStyle;" parent="WIyWlLk6GJQsqaUBKTNV-1" source="-uBfDtKPX-X4wUrIHPEk-8" target="-uBfDtKPX-X4wUrIHPEk-10" edge="1">
          <mxGeometry relative="1" as="geometry" />
        </mxCell>
        <mxCell id="-uBfDtKPX-X4wUrIHPEk-8" value="&lt;font style=&quot;font-size: 10px;&quot;&gt;The response coming from API with error&lt;/font&gt;" style="rounded=1;whiteSpace=wrap;html=1;fontSize=12;glass=0;strokeWidth=1;shadow=0;fillColor=#e1d5e7;strokeColor=#9673a6;" parent="WIyWlLk6GJQsqaUBKTNV-1" vertex="1">
          <mxGeometry x="895" y="200" width="110" height="30" as="geometry" />
        </mxCell>
        <mxCell id="-uBfDtKPX-X4wUrIHPEk-19" value="" style="edgeStyle=orthogonalEdgeStyle;rounded=0;orthogonalLoop=1;jettySize=auto;html=1;" parent="WIyWlLk6GJQsqaUBKTNV-1" source="-uBfDtKPX-X4wUrIHPEk-10" target="-uBfDtKPX-X4wUrIHPEk-17" edge="1">
          <mxGeometry relative="1" as="geometry" />
        </mxCell>
        <mxCell id="-uBfDtKPX-X4wUrIHPEk-10" value="&lt;font style=&quot;font-size: 10px;&quot;&gt;If the error go to the catch section&lt;/font&gt;" style="rhombus;whiteSpace=wrap;html=1;shadow=0;fontFamily=Helvetica;fontSize=12;align=center;strokeWidth=1;spacing=6;spacingTop=-4;fillColor=#fff2cc;strokeColor=#d6b656;" parent="WIyWlLk6GJQsqaUBKTNV-1" vertex="1">
          <mxGeometry x="905" y="312.5" width="90" height="95" as="geometry" />
        </mxCell>
        <mxCell id="-uBfDtKPX-X4wUrIHPEk-12" value="Yes" style="rounded=0;html=1;jettySize=auto;orthogonalLoop=1;fontSize=11;endArrow=block;endFill=0;endSize=8;strokeWidth=1;shadow=0;labelBackgroundColor=none;edgeStyle=orthogonalEdgeStyle;exitX=0.5;exitY=1;exitDx=0;exitDy=0;" parent="WIyWlLk6GJQsqaUBKTNV-1" source="-uBfDtKPX-X4wUrIHPEk-10" target="-uBfDtKPX-X4wUrIHPEk-13" edge="1">
          <mxGeometry x="0.3388" y="20" relative="1" as="geometry">
            <mxPoint as="offset" />
            <mxPoint x="955" y="470" as="sourcePoint" />
          </mxGeometry>
        </mxCell>
        <mxCell id="yHKOQaIsq4SeAShEtSC3-14" style="edgeStyle=orthogonalEdgeStyle;rounded=0;orthogonalLoop=1;jettySize=auto;html=1;" edge="1" parent="WIyWlLk6GJQsqaUBKTNV-1" source="-uBfDtKPX-X4wUrIHPEk-13" target="-uBfDtKPX-X4wUrIHPEk-31">
          <mxGeometry relative="1" as="geometry">
            <Array as="points">
              <mxPoint x="950" y="610" />
            </Array>
          </mxGeometry>
        </mxCell>
        <mxCell id="-uBfDtKPX-X4wUrIHPEk-13" value="&lt;font style=&quot;font-size: 10px;&quot;&gt;Adding the error to the global error list&lt;/font&gt;" style="rounded=1;whiteSpace=wrap;html=1;fontSize=12;glass=0;strokeWidth=1;shadow=0;fillColor=#e1d5e7;strokeColor=#9673a6;" parent="WIyWlLk6GJQsqaUBKTNV-1" vertex="1">
          <mxGeometry x="860" y="470" width="180" height="50" as="geometry" />
        </mxCell>
        <mxCell id="-uBfDtKPX-X4wUrIHPEk-14" value="Cases of response from POST API" style="rounded=0;whiteSpace=wrap;html=1;fillColor=#ffe6cc;strokeColor=#d79b00;" parent="WIyWlLk6GJQsqaUBKTNV-1" vertex="1">
          <mxGeometry x="1033.75" y="200" width="260" height="50" as="geometry" />
        </mxCell>
        <mxCell id="-uBfDtKPX-X4wUrIHPEk-22" value="" style="edgeStyle=orthogonalEdgeStyle;rounded=0;orthogonalLoop=1;jettySize=auto;html=1;" parent="WIyWlLk6GJQsqaUBKTNV-1" source="-uBfDtKPX-X4wUrIHPEk-17" target="-uBfDtKPX-X4wUrIHPEk-21" edge="1">
          <mxGeometry relative="1" as="geometry" />
        </mxCell>
        <mxCell id="-uBfDtKPX-X4wUrIHPEk-25" style="edgeStyle=orthogonalEdgeStyle;rounded=0;orthogonalLoop=1;jettySize=auto;html=1;entryX=0.5;entryY=0;entryDx=0;entryDy=0;" parent="WIyWlLk6GJQsqaUBKTNV-1" source="-uBfDtKPX-X4wUrIHPEk-17" target="-uBfDtKPX-X4wUrIHPEk-24" edge="1">
          <mxGeometry relative="1" as="geometry">
            <mxPoint x="1140" y="430" as="targetPoint" />
          </mxGeometry>
        </mxCell>
        <mxCell id="-uBfDtKPX-X4wUrIHPEk-17" value="&lt;font style=&quot;font-size: 10px;&quot;&gt;If the error &lt;br&gt;contains ### in the error message&lt;/font&gt;" style="strokeWidth=2;html=1;shape=mxgraph.flowchart.decision;whiteSpace=wrap;fillColor=#fff2cc;strokeColor=#d6b656;" parent="WIyWlLk6GJQsqaUBKTNV-1" vertex="1">
          <mxGeometry x="1095" y="310" width="90" height="100" as="geometry" />
        </mxCell>
        <mxCell id="-uBfDtKPX-X4wUrIHPEk-20" value="No" style="text;html=1;strokeColor=none;fillColor=none;align=center;verticalAlign=middle;whiteSpace=wrap;rounded=0;" parent="WIyWlLk6GJQsqaUBKTNV-1" vertex="1">
          <mxGeometry x="1025" y="340" width="45" height="20" as="geometry" />
        </mxCell>
        <mxCell id="yHKOQaIsq4SeAShEtSC3-17" style="edgeStyle=orthogonalEdgeStyle;rounded=0;orthogonalLoop=1;jettySize=auto;html=1;entryX=1;entryY=0.5;entryDx=0;entryDy=0;" edge="1" parent="WIyWlLk6GJQsqaUBKTNV-1" source="-uBfDtKPX-X4wUrIHPEk-21" target="-uBfDtKPX-X4wUrIHPEk-31">
          <mxGeometry relative="1" as="geometry">
            <Array as="points">
              <mxPoint x="1320" y="613" />
            </Array>
          </mxGeometry>
        </mxCell>
        <mxCell id="-uBfDtKPX-X4wUrIHPEk-21" value="&lt;font style=&quot;font-size: 10px;&quot;&gt;Remove the ### signal from error message and save it in the Error List API&lt;/font&gt;" style="rounded=1;whiteSpace=wrap;html=1;fontSize=12;glass=0;strokeWidth=1;shadow=0;fillColor=#e1d5e7;strokeColor=#9673a6;" parent="WIyWlLk6GJQsqaUBKTNV-1" vertex="1">
          <mxGeometry x="1225" y="475" width="185" height="45" as="geometry" />
        </mxCell>
        <mxCell id="-uBfDtKPX-X4wUrIHPEk-23" value="Yes" style="text;html=1;strokeColor=none;fillColor=none;align=center;verticalAlign=middle;whiteSpace=wrap;rounded=0;" parent="WIyWlLk6GJQsqaUBKTNV-1" vertex="1">
          <mxGeometry x="1195" y="340" width="45" height="20" as="geometry" />
        </mxCell>
        <mxCell id="yHKOQaIsq4SeAShEtSC3-12" style="edgeStyle=orthogonalEdgeStyle;rounded=0;orthogonalLoop=1;jettySize=auto;html=1;entryX=0.5;entryY=0;entryDx=0;entryDy=0;" edge="1" parent="WIyWlLk6GJQsqaUBKTNV-1" source="-uBfDtKPX-X4wUrIHPEk-24" target="-uBfDtKPX-X4wUrIHPEk-31">
          <mxGeometry relative="1" as="geometry" />
        </mxCell>
        <mxCell id="-uBfDtKPX-X4wUrIHPEk-24" value="&lt;font style=&quot;font-size: 10px;&quot;&gt;save general error &quot;Something went wrong&quot; in the list of Error List API&lt;/font&gt;" style="rounded=1;whiteSpace=wrap;html=1;fontSize=12;glass=0;strokeWidth=1;shadow=0;fillColor=#e1d5e7;strokeColor=#9673a6;" parent="WIyWlLk6GJQsqaUBKTNV-1" vertex="1">
          <mxGeometry x="1062.5" y="475" width="155" height="45" as="geometry" />
        </mxCell>
        <mxCell id="-uBfDtKPX-X4wUrIHPEk-26" value="No" style="text;html=1;strokeColor=none;fillColor=none;align=center;verticalAlign=middle;whiteSpace=wrap;rounded=0;" parent="WIyWlLk6GJQsqaUBKTNV-1" vertex="1">
          <mxGeometry x="1135" y="430" width="45" height="20" as="geometry" />
        </mxCell>
        <mxCell id="-uBfDtKPX-X4wUrIHPEk-31" value="&lt;font style=&quot;font-size: 10px;&quot;&gt;Return back to the function that called the API&lt;/font&gt;" style="rounded=1;whiteSpace=wrap;html=1;fontSize=12;glass=0;strokeWidth=1;shadow=0;fillColor=#e1d5e7;strokeColor=#9673a6;" parent="WIyWlLk6GJQsqaUBKTNV-1" vertex="1">
          <mxGeometry x="1060" y="590" width="160" height="45" as="geometry" />
        </mxCell>
        <mxCell id="-uBfDtKPX-X4wUrIHPEk-38" value="" style="edgeStyle=orthogonalEdgeStyle;rounded=0;orthogonalLoop=1;jettySize=auto;html=1;" parent="WIyWlLk6GJQsqaUBKTNV-1" source="-uBfDtKPX-X4wUrIHPEk-35" target="-uBfDtKPX-X4wUrIHPEk-37" edge="1">
          <mxGeometry relative="1" as="geometry" />
        </mxCell>
        <mxCell id="yHKOQaIsq4SeAShEtSC3-27" value="" style="edgeStyle=orthogonalEdgeStyle;rounded=0;orthogonalLoop=1;jettySize=auto;html=1;" edge="1" parent="WIyWlLk6GJQsqaUBKTNV-1" source="-uBfDtKPX-X4wUrIHPEk-35" target="-uBfDtKPX-X4wUrIHPEk-44">
          <mxGeometry relative="1" as="geometry" />
        </mxCell>
        <mxCell id="-uBfDtKPX-X4wUrIHPEk-35" value="&lt;font style=&quot;font-size: 10px;&quot;&gt;&lt;font style=&quot;&quot;&gt;If any error happend and go to the cat&lt;/font&gt;&lt;font style=&quot;&quot;&gt;ch section&lt;/font&gt;&lt;/font&gt;" style="strokeWidth=2;html=1;shape=mxgraph.flowchart.decision;whiteSpace=wrap;fillColor=#fff2cc;strokeColor=#d6b656;" parent="WIyWlLk6GJQsqaUBKTNV-1" vertex="1">
          <mxGeometry x="998.75" y="700" width="281.25" height="60" as="geometry" />
        </mxCell>
        <mxCell id="-uBfDtKPX-X4wUrIHPEk-36" style="edgeStyle=orthogonalEdgeStyle;rounded=0;orthogonalLoop=1;jettySize=auto;html=1;exitX=0.5;exitY=1;exitDx=0;exitDy=0;entryX=0.5;entryY=0;entryDx=0;entryDy=0;entryPerimeter=0;" parent="WIyWlLk6GJQsqaUBKTNV-1" source="-uBfDtKPX-X4wUrIHPEk-31" target="-uBfDtKPX-X4wUrIHPEk-35" edge="1">
          <mxGeometry relative="1" as="geometry" />
        </mxCell>
        <mxCell id="-uBfDtKPX-X4wUrIHPEk-37" value="&lt;font style=&quot;font-size: 10px;&quot;&gt;I want to call the ErrorCenterPoint method to dispay error to user&lt;/font&gt;" style="rounded=1;whiteSpace=wrap;html=1;fontSize=12;glass=0;strokeWidth=1;shadow=0;fillColor=#e1d5e7;strokeColor=#9673a6;" parent="WIyWlLk6GJQsqaUBKTNV-1" vertex="1">
          <mxGeometry x="1370" y="699.38" width="170" height="61.25" as="geometry" />
        </mxCell>
        <mxCell id="-uBfDtKPX-X4wUrIHPEk-41" value="Yes" style="text;html=1;strokeColor=none;fillColor=none;align=center;verticalAlign=middle;whiteSpace=wrap;rounded=0;" parent="WIyWlLk6GJQsqaUBKTNV-1" vertex="1">
          <mxGeometry x="1287.5" y="730" width="60" height="30" as="geometry" />
        </mxCell>
        <mxCell id="-uBfDtKPX-X4wUrIHPEk-42" value="No" style="text;html=1;strokeColor=none;fillColor=none;align=center;verticalAlign=middle;whiteSpace=wrap;rounded=0;" parent="WIyWlLk6GJQsqaUBKTNV-1" vertex="1">
          <mxGeometry x="1202.5" y="810" width="60" height="30" as="geometry" />
        </mxCell>
        <mxCell id="yHKOQaIsq4SeAShEtSC3-15" style="edgeStyle=orthogonalEdgeStyle;rounded=0;orthogonalLoop=1;jettySize=auto;html=1;" edge="1" parent="WIyWlLk6GJQsqaUBKTNV-1" source="-uBfDtKPX-X4wUrIHPEk-44">
          <mxGeometry relative="1" as="geometry">
            <mxPoint x="940" y="890" as="targetPoint" />
            <Array as="points">
              <mxPoint x="940" y="825" />
            </Array>
          </mxGeometry>
        </mxCell>
        <mxCell id="yHKOQaIsq4SeAShEtSC3-20" value="" style="edgeStyle=orthogonalEdgeStyle;rounded=0;orthogonalLoop=1;jettySize=auto;html=1;" edge="1" parent="WIyWlLk6GJQsqaUBKTNV-1" source="-uBfDtKPX-X4wUrIHPEk-44" target="-uBfDtKPX-X4wUrIHPEk-46">
          <mxGeometry relative="1" as="geometry" />
        </mxCell>
        <mxCell id="-uBfDtKPX-X4wUrIHPEk-44" value="&lt;span style=&quot;font-size: 10px;&quot;&gt;Checking the Error List API If it contains any error&lt;/span&gt;" style="strokeWidth=2;html=1;shape=mxgraph.flowchart.decision;whiteSpace=wrap;fillColor=#fff2cc;strokeColor=#d6b656;" parent="WIyWlLk6GJQsqaUBKTNV-1" vertex="1">
          <mxGeometry x="1011.5600000000001" y="790" width="255.63" height="70" as="geometry" />
        </mxCell>
        <mxCell id="-uBfDtKPX-X4wUrIHPEk-46" value="&lt;font style=&quot;font-size: 10px;&quot;&gt;Sending all the errors inside the Error List API to the app.center &amp;amp;&amp;amp; display one popup to the end user with the list of errors coming from Error List API&lt;/font&gt;" style="rounded=1;whiteSpace=wrap;html=1;fontSize=12;glass=0;strokeWidth=1;shadow=0;fillColor=#e1d5e7;strokeColor=#9673a6;" parent="WIyWlLk6GJQsqaUBKTNV-1" vertex="1">
          <mxGeometry x="1370" y="785" width="180" height="80" as="geometry" />
        </mxCell>
        <mxCell id="-uBfDtKPX-X4wUrIHPEk-53" value="" style="edgeStyle=orthogonalEdgeStyle;rounded=0;orthogonalLoop=1;jettySize=auto;html=1;" parent="WIyWlLk6GJQsqaUBKTNV-1" source="-uBfDtKPX-X4wUrIHPEk-49" target="-uBfDtKPX-X4wUrIHPEk-52" edge="1">
          <mxGeometry relative="1" as="geometry" />
        </mxCell>
        <mxCell id="yHKOQaIsq4SeAShEtSC3-23" value="" style="edgeStyle=orthogonalEdgeStyle;rounded=0;orthogonalLoop=1;jettySize=auto;html=1;" edge="1" parent="WIyWlLk6GJQsqaUBKTNV-1" source="-uBfDtKPX-X4wUrIHPEk-49" target="t4Zw2GA6_5PIGfsb4qib-11">
          <mxGeometry relative="1" as="geometry" />
        </mxCell>
        <mxCell id="-uBfDtKPX-X4wUrIHPEk-49" value="&lt;span style=&quot;font-size: 10px;&quot;&gt;Checking the global error list If it contains any error&lt;/span&gt;" style="strokeWidth=2;html=1;shape=mxgraph.flowchart.decision;whiteSpace=wrap;fillColor=#fff2cc;strokeColor=#d6b656;" parent="WIyWlLk6GJQsqaUBKTNV-1" vertex="1">
          <mxGeometry x="815" y="890" width="250" height="80" as="geometry" />
        </mxCell>
        <mxCell id="-uBfDtKPX-X4wUrIHPEk-52" value="&lt;font style=&quot;font-size: 10px;&quot;&gt;Show one popup only to the end-user with &quot;Something went wrong&quot; message&lt;/font&gt;" style="rounded=1;whiteSpace=wrap;html=1;fontSize=12;glass=0;strokeWidth=1;shadow=0;fillColor=#e1d5e7;strokeColor=#9673a6;" parent="WIyWlLk6GJQsqaUBKTNV-1" vertex="1">
          <mxGeometry x="1137.5" y="909.0600000000002" width="160" height="41.87" as="geometry" />
        </mxCell>
        <mxCell id="VSbtf6zZAGOuhCDQzLcq-1" value="&lt;font style=&quot;font-size: 24px;&quot;&gt;Error Handling for the cases of API section&lt;/font&gt;" style="rounded=0;whiteSpace=wrap;html=1;fillColor=#d5e8d4;strokeColor=#82b366;" parent="WIyWlLk6GJQsqaUBKTNV-1" vertex="1">
          <mxGeometry x="555" y="80" width="530" height="50" as="geometry" />
        </mxCell>
        <mxCell id="t4Zw2GA6_5PIGfsb4qib-1" style="edgeStyle=orthogonalEdgeStyle;rounded=0;orthogonalLoop=1;jettySize=auto;html=1;entryX=0.5;entryY=0;entryDx=0;entryDy=0;" parent="WIyWlLk6GJQsqaUBKTNV-1" source="t4Zw2GA6_5PIGfsb4qib-0" target="WIyWlLk6GJQsqaUBKTNV-11" edge="1">
          <mxGeometry relative="1" as="geometry">
            <mxPoint x="115" y="690" as="targetPoint" />
          </mxGeometry>
        </mxCell>
        <mxCell id="t4Zw2GA6_5PIGfsb4qib-4" value="" style="edgeStyle=orthogonalEdgeStyle;rounded=0;orthogonalLoop=1;jettySize=auto;html=1;" parent="WIyWlLk6GJQsqaUBKTNV-1" source="t4Zw2GA6_5PIGfsb4qib-0" target="WIyWlLk6GJQsqaUBKTNV-6" edge="1">
          <mxGeometry relative="1" as="geometry" />
        </mxCell>
        <mxCell id="t4Zw2GA6_5PIGfsb4qib-0" value="If Error captured by the try/catch" style="rhombus;whiteSpace=wrap;html=1;shadow=0;fontFamily=Helvetica;fontSize=12;align=center;strokeWidth=1;spacing=6;spacingTop=-4;fillColor=#fff2cc;strokeColor=#d6b656;" parent="WIyWlLk6GJQsqaUBKTNV-1" vertex="1">
          <mxGeometry x="240" y="330" width="120" height="100" as="geometry" />
        </mxCell>
        <mxCell id="t4Zw2GA6_5PIGfsb4qib-5" value="Adding the response message of the ### to the Error List API" style="rounded=1;whiteSpace=wrap;html=1;fontSize=12;glass=0;strokeWidth=1;shadow=0;fillColor=#e1d5e7;strokeColor=#9673a6;" parent="WIyWlLk6GJQsqaUBKTNV-1" vertex="1">
          <mxGeometry x="240" y="660" width="120" height="70" as="geometry" />
        </mxCell>
        <mxCell id="t4Zw2GA6_5PIGfsb4qib-7" value="Yes" style="text;html=1;strokeColor=none;fillColor=none;align=center;verticalAlign=middle;whiteSpace=wrap;rounded=0;" parent="WIyWlLk6GJQsqaUBKTNV-1" vertex="1">
          <mxGeometry x="70" y="472.5" width="45" height="20" as="geometry" />
        </mxCell>
        <mxCell id="t4Zw2GA6_5PIGfsb4qib-8" value="No" style="text;html=1;strokeColor=none;fillColor=none;align=center;verticalAlign=middle;whiteSpace=wrap;rounded=0;" parent="WIyWlLk6GJQsqaUBKTNV-1" vertex="1">
          <mxGeometry x="260" y="455" width="45" height="20" as="geometry" />
        </mxCell>
        <mxCell id="t4Zw2GA6_5PIGfsb4qib-9" value="No" style="text;html=1;strokeColor=none;fillColor=none;align=center;verticalAlign=middle;whiteSpace=wrap;rounded=0;" parent="WIyWlLk6GJQsqaUBKTNV-1" vertex="1">
          <mxGeometry x="260" y="615" width="45" height="20" as="geometry" />
        </mxCell>
        <mxCell id="t4Zw2GA6_5PIGfsb4qib-11" value="Continue, No Error" style="rounded=1;whiteSpace=wrap;html=1;fontSize=12;glass=0;strokeWidth=1;shadow=0;fillColor=#e1d5e7;strokeColor=#9673a6;" parent="WIyWlLk6GJQsqaUBKTNV-1" vertex="1">
          <mxGeometry x="853.44" y="1010.0000000000001" width="171.56" height="40" as="geometry" />
        </mxCell>
        <mxCell id="yHKOQaIsq4SeAShEtSC3-19" value="No" style="text;html=1;strokeColor=none;fillColor=none;align=center;verticalAlign=middle;whiteSpace=wrap;rounded=0;" vertex="1" parent="WIyWlLk6GJQsqaUBKTNV-1">
          <mxGeometry x="938.75" y="800" width="60" height="30" as="geometry" />
        </mxCell>
        <mxCell id="yHKOQaIsq4SeAShEtSC3-21" value="Yes" style="text;html=1;strokeColor=none;fillColor=none;align=center;verticalAlign=middle;whiteSpace=wrap;rounded=0;" vertex="1" parent="WIyWlLk6GJQsqaUBKTNV-1">
          <mxGeometry x="1070" y="900" width="60" height="30" as="geometry" />
        </mxCell>
        <mxCell id="yHKOQaIsq4SeAShEtSC3-22" value="Yes" style="text;html=1;strokeColor=none;fillColor=none;align=center;verticalAlign=middle;whiteSpace=wrap;rounded=0;" vertex="1" parent="WIyWlLk6GJQsqaUBKTNV-1">
          <mxGeometry x="1287.5" y="800" width="60" height="30" as="geometry" />
        </mxCell>
        <mxCell id="yHKOQaIsq4SeAShEtSC3-30" value="No" style="text;html=1;strokeColor=none;fillColor=none;align=center;verticalAlign=middle;whiteSpace=wrap;rounded=0;" vertex="1" parent="WIyWlLk6GJQsqaUBKTNV-1">
          <mxGeometry x="1095" y="755" width="60" height="30" as="geometry" />
        </mxCell>
        <mxCell id="yHKOQaIsq4SeAShEtSC3-32" value="No" style="text;html=1;strokeColor=none;fillColor=none;align=center;verticalAlign=middle;whiteSpace=wrap;rounded=0;" vertex="1" parent="WIyWlLk6GJQsqaUBKTNV-1">
          <mxGeometry x="930" y="970" width="60" height="30" as="geometry" />
        </mxCell>
      </root>
    </mxGraphModel>
  </diagram>
</mxfile>
